<?xml version="1.0" encoding="UTF-8"?>
<svg xmlns="http://www.w3.org/2000/svg" viewBox="0 0 512 512" width="512" height="512" role="img" aria-label="AAC Speak">
  <!-- Full-bleed plate for maskable crop (circle/squircle) -->
  <rect width="512" height="512" fill="#e5e6e9"/>
  <!-- Artwork centered in ~80% safe zone -->
  <g transform="translate(52.4934736842105, 51.2) scale(0.862315789473684)">
<path d="M119.79 0.08C197.6 0.08 275.4 0.08 353.21 0.08C353.44 0.83 358.77 0.2 360.25 2C362.6 1.02 364.55 0.93 366.25 3C368.42 3.12 370.58 3.25 372.75 3.37C373.75 3.7 374.75 4.04 375.75 4.37C378.08 5.04 380.42 5.7 382.75 6.37C385.11 8.94 389.81 9.47 392.73 10.42C398.13 12.18 417.27 23.08 420 27.75C422 29.42 424 31.08 426 32.75C427.79 32.67 439.33 44.21 439.25 46C440.92 48 442.58 50 444.25 52C452.24 56.68 457.24 77.31 462.63 82.25C463.3 83.92 463.96 85.58 464.63 87.25C464.96 88.25 465.3 89.25 465.63 90.25C465.75 92.08 465.88 93.92 466 95.75C467.79 97.22 468.9 100.6 468 102.75C469.92 104.32 469.92 105.55 469 107.75C471.07 109.44 470.98 111.4 470 113.75C471.94 115.33 471.08 121.53 471.92 121.79C471.92 199.26 471.92 276.74 471.92 354.21C471.08 354.47 471.94 360.67 470 362.25C470.98 364.6 471.07 366.56 469 368.25C469.92 370.45 469.92 371.68 468 373.25C467.88 375.08 467.75 376.92 467.63 378.75C467.3 379.75 466.96 380.75 466.63 381.75C466.3 382.75 465.96 383.75 465.63 384.75C465.3 385.75 464.96 386.75 464.63 387.75C463.96 389.42 463.3 391.08 462.63 392.75C458.63 400.25 454.64 407.75 450.64 415.25C448.51 417.5 446.38 419.75 444.25 422C442.58 424 440.92 426 439.25 428C434.5 432.75 429.75 437.5 425 442.25C422.08 445.05 419.17 447.84 416.25 450.64C413.67 452.01 411.08 453.38 408.5 454.75C403.58 457.71 398.67 460.67 393.75 463.63C391.42 464.63 389.08 465.63 386.75 466.63C385.75 466.96 384.75 467.3 383.75 467.63C382.75 467.96 381.75 468.3 380.75 468.63C379.75 468.97 378.75 469.31 377.75 469.64C375.19 469.55 372.49 469.73 370.75 471.64C368.25 471.76 365.75 471.88 363.25 472C361.55 474.07 359.6 473.98 357.25 473C355.66 474.94 349.47 474.08 349.21 474.92C274.07 474.92 198.93 474.92 123.79 474.92C123.5 473.98 116.44 475.06 114.75 473C112.39 473.99 110.45 474.08 108.75 472C104.92 471.55 101.08 471.09 97.25 470.64C96.25 470.31 95.25 469.97 94.25 469.63C93.25 469.3 92.25 468.96 91.25 468.63C90.25 468.3 89.25 467.96 88.25 467.63C86.58 466.97 84.92 466.31 83.25 465.64C80.39 462.49 75.48 461.94 72.21 460.31C65.56 456.99 48.92 446.94 45 440.25C40.92 436.17 36.83 432.08 32.75 428C27.38 424.85 13.27 402.4 11.42 396.73C10.68 394.45 10.59 391.78 8.37 389.75C7.7 388.08 7.04 386.42 6.37 384.75C6.04 383.75 5.7 382.75 5.37 381.75C5.04 380.75 4.7 379.75 4.37 378.75C4.25 376.92 4.12 375.08 4 373.25C2.08 371.68 2.08 370.45 3 368.25C1.09 366.68 1.08 365.44 2 363.25C0.06 361.66 0.92 355.47 0.08 355.21C0.08 277.4 0.08 199.6 0.08 121.79C1.02 121.5 -0.06 114.44 2 112.75C1.08 110.56 1.09 109.32 3 107.75C2.08 105.55 2.08 104.32 4 102.75C3.1 100.6 4.21 97.22 6 95.75C6.12 93.92 6.25 92.08 6.37 90.25C6.7 89.25 7.04 88.25 7.37 87.25C9.11 85.65 8.84 84.05 9.42 82.27C11.25 76.66 21.4 57.13 26.75 54C28.08 52.33 29.42 50.67 30.75 49C33.42 46 36.08 43 38.75 40C39.5 39.25 40.25 38.5 41 37.75C43.67 35.42 46.33 33.08 49 30.75C52.92 24.05 69.41 15.59 75.21 12.69C77.49 11.55 80.19 11.62 82.25 9.37C84.92 8.37 87.58 7.37 90.25 6.37C91.25 6.04 92.25 5.7 93.25 5.37C94.25 5.04 95.25 4.7 96.25 4.37C99.75 3.91 103.25 3.46 106.75 3C108.45 0.93 110.4 1.02 112.75 2C114.23 0.2 119.56 0.83 119.79 0.08ZM358.76 83.07C346.54 86.28 350.1 99.07 354.18 106.63C356.69 111.28 361.8 114.63 364.61 119.11C368.61 125.49 373.23 131.75 376.81 138.38C393.54 169.42 401.99 202.96 401.99 238.75C401.99 272.5 392.6 305.32 376.81 334.62C371.38 344.69 363.67 353.23 357.61 362.89C355.5 366.25 351.63 368.58 350.18 372.37C345.88 383.6 356.84 390.63 366.25 390.01C372.14 389.62 376.61 382.55 379.39 378.11C381.1 375.38 384.28 373.48 385.82 370.63C391.78 359.58 399.52 349.73 405.19 338.38C423.2 302.37 434.04 258.58 428.02 216.75C427.01 209.7 427.73 202.59 425.93 195.76C421.5 178.87 416.55 162.97 410.19 146.62C405.16 133.66 397.36 122.49 390.82 110.37C388.15 105.43 383.37 101.64 380.39 96.89C375.72 89.44 369.05 80.36 358.76 83.07ZM65.15 388.75C70.93 389.02 80.14 381.81 85.38 379.19C100.59 371.59 115.85 362.96 131.63 356.82C135.75 355.22 139.48 351.21 143.76 350.08C144.92 349.78 163.89 356.18 166.76 356.93C182.84 361.16 203.12 361.17 219.24 356.93C258.09 346.73 292.82 319.18 307.82 280.63C310.49 273.76 311.23 266.82 313.08 259.76C315.18 251.76 317.24 240.88 315.99 232.24C312.85 210.43 308.35 191.89 297.82 172.37C293.13 163.68 285.38 156.09 278.37 148.88C248.3 117.96 202.12 106.2 160.76 117.07C149.7 119.97 139.71 125.37 129.62 130.81C117.82 137.17 104.07 146.99 96.61 158.89C90.75 168.23 83.28 175.83 79.18 186.37C67.5 216.39 64.23 249.89 76.18 280.63C79.6 289.41 84.72 297.37 89.18 305.63C90.68 308.42 93.52 309.29 93.99 312.75C84.38 338.08 74.77 363.42 65.15 388.75ZM319.76 122.07C314.64 123.41 305.66 130.03 308.18 136.63C312.57 148.1 322.91 157.45 328.81 168.38C340.37 189.83 344.99 212.98 344.99 237.75C344.99 262.87 338.52 285.89 326.81 307.62C321.96 316.61 310.53 326.36 308.07 335.76C305.46 345.67 317.69 350.51 325.25 350.01C330.01 349.69 334.06 344.82 336.39 341.11C342.72 331.02 350.52 322.38 355.19 311.38C360.27 299.42 365.61 287.9 368.93 275.24C378.63 238.34 371.36 201.51 358.19 167.62C353.3 155.03 345.02 139.8 335.37 129.88C331.33 125.72 326.21 120.37 319.76 122.07ZM266.75 171.01C268.45 171.63 270.92 180.3 272.18 182.63C275.69 189.14 285.13 194.16 291.82 195.25C285.81 199.34 276.9 199.88 272.37 207.11C270.1 210.74 269.45 216.89 266.75 219.82C264.55 216.59 263.87 211.18 261.82 207.37C258.19 200.64 248.61 197.66 242.18 195.75C247.68 191.59 256.38 191.68 260.63 184.89C262.37 182.12 266.03 171.82 266.75 171.01Z" fill="#e5e6e9" fill-rule="evenodd" stroke="#e5e6e9" stroke-width="0.25" stroke-linejoin="round"/>
<path d="M358.76 83.07C369.05 80.36 375.72 89.44 380.39 96.89C383.37 101.64 388.15 105.43 390.82 110.37C397.36 122.49 405.16 133.66 410.19 146.62C416.55 162.97 421.5 178.87 425.93 195.76C427.73 202.59 427.01 209.7 428.02 216.75C434.04 258.58 423.2 302.37 405.19 338.38C399.52 349.73 391.78 359.58 385.82 370.63C384.28 373.48 381.1 375.38 379.39 378.11C376.61 382.55 372.14 389.62 366.25 390.01C356.84 390.63 345.88 383.6 350.18 372.37C351.63 368.58 355.5 366.25 357.61 362.89C363.67 353.23 371.38 344.69 376.81 334.62C392.6 305.32 401.99 272.5 401.99 238.75C401.99 202.96 393.54 169.42 376.81 138.38C373.23 131.75 368.61 125.49 364.61 119.11C361.8 114.63 356.69 111.28 354.18 106.63C350.1 99.07 346.54 86.28 358.76 83.07ZM65.15 388.75C74.77 363.42 84.38 338.08 93.99 312.75C93.52 309.29 90.68 308.42 89.18 305.63C84.72 297.37 79.6 289.41 76.18 280.63C64.23 249.89 67.5 216.39 79.18 186.37C83.28 175.83 90.75 168.23 96.61 158.89C104.07 146.99 117.82 137.17 129.62 130.81C139.71 125.37 149.7 119.97 160.76 117.07C202.12 106.2 248.3 117.96 278.37 148.88C285.38 156.09 293.13 163.68 297.82 172.37C308.35 191.89 312.85 210.43 315.99 232.24C317.24 240.88 315.18 251.76 313.08 259.76C311.23 266.82 310.49 273.76 307.82 280.63C292.82 319.18 258.09 346.73 219.24 356.93C203.12 361.17 182.84 361.16 166.76 356.93C163.89 356.18 144.92 349.78 143.76 350.08C139.48 351.21 135.75 355.22 131.63 356.82C115.85 362.96 100.59 371.59 85.38 379.19C80.14 381.81 70.93 389.02 65.15 388.75ZM319.76 122.07C326.21 120.37 331.33 125.72 335.37 129.88C345.02 139.8 353.3 155.03 358.19 167.62C371.36 201.51 378.63 238.34 368.93 275.24C365.61 287.9 360.27 299.42 355.19 311.38C350.52 322.38 342.72 331.02 336.39 341.11C334.06 344.82 330.01 349.69 325.25 350.01C317.69 350.51 305.46 345.67 308.07 335.76C310.53 326.36 321.96 316.61 326.81 307.62C338.52 285.89 344.99 262.87 344.99 237.75C344.99 212.98 340.37 189.83 328.81 168.38C322.91 157.45 312.57 148.1 308.18 136.63C305.66 130.03 314.64 123.41 319.76 122.07ZM266.75 171.01C266.03 171.82 262.37 182.12 260.63 184.89C256.38 191.68 247.68 191.59 242.18 195.75C248.61 197.66 258.19 200.64 261.82 207.37C263.87 211.18 264.55 216.59 266.75 219.82C269.45 216.89 270.1 210.74 272.37 207.11C276.9 199.88 285.81 199.34 291.82 195.25C285.13 194.16 275.69 189.14 272.18 182.63C270.92 180.3 268.45 171.63 266.75 171.01Z" fill="#1782d2" fill-rule="evenodd" stroke="#1782d2" stroke-width="0.25" stroke-linejoin="round"/>
  </g>
</svg>
